<svg width="24" height="24" viewBox="0 0 24 24" fill="none" xmlns="http://www.w3.org/2000/svg">
<path d="M22 22.0605L17.6186 17.6775M11.0997 20.3817C12.3208 20.3978 13.533 20.1712 14.6658 19.7151C15.7987 19.2589 16.8296 18.5823 17.6989 17.7245C18.5681 16.8667 19.2583 15.8447 19.7294 14.718C20.2004 13.5913 20.443 12.3822 20.443 11.161C20.443 9.93975 20.2004 8.73067 19.7294 7.60395C19.2583 6.47722 18.5681 5.45529 17.6989 4.59747C16.8296 3.73965 15.7987 3.06302 14.6658 2.60688C13.533 2.15074 12.3208 1.92415 11.0997 1.94029C8.67529 1.97232 6.36107 2.95788 4.65798 4.68362C2.9549 6.40935 2 8.73639 2 11.161C2 13.5856 2.9549 15.9126 4.65798 17.6384C6.36107 19.3641 8.67529 20.3496 11.0997 20.3817Z" stroke="white" stroke-linecap="round" stroke-linejoin="round"/>
<path d="M9.79229 5.98043C9.57884 5.98043 9.37413 6.06522 9.2232 6.21615C9.07227 6.36708 8.98748 6.57179 8.98748 6.78524V9.04836H6.72275C6.5093 9.04836 6.30459 9.13315 6.15366 9.28408C6.00273 9.43501 5.91794 9.63972 5.91794 9.85317V12.4688C5.91794 12.6822 6.00273 12.8869 6.15366 13.0379C6.30459 13.1888 6.5093 13.2736 6.72275 13.2736H8.98748V15.5383C8.98748 15.7518 9.07227 15.9565 9.2232 16.1074C9.37413 16.2584 9.57884 16.3431 9.79229 16.3431H12.4063C12.6198 16.3431 12.8245 16.2584 12.9754 16.1074C13.1263 15.9565 13.2111 15.7518 13.2111 15.5383V13.272H15.4742C15.6877 13.272 15.8924 13.1872 16.0433 13.0363C16.1943 12.8853 16.279 12.6806 16.279 12.4672V9.85317C16.279 9.63972 16.1943 9.43501 16.0433 9.28408C15.8924 9.13315 15.6877 9.04836 15.4742 9.04836H13.2127V6.78524C13.2127 6.57179 13.1279 6.36708 12.977 6.21615C12.8261 6.06522 12.6214 5.98043 12.4079 5.98043H9.79229Z" stroke="white" stroke-linecap="round" stroke-linejoin="round"/>
</svg>
