<svg width="16" height="13" viewBox="0 0 16 13" fill="none" xmlns="http://www.w3.org/2000/svg">
<path fill-rule="evenodd" clip-rule="evenodd" d="M2.93994 5.5888C2.93994 3.0972 5.27763 1.08334 8.10531 1.08334C10.941 1.08334 13.2786 3.0972 13.2786 5.5888C13.2786 6.84434 12.766 8.00998 11.9221 8.99795C10.9912 10.0877 9.84386 11.0373 8.55236 11.7826C8.25678 11.9548 7.99002 11.9678 7.66561 11.7826C6.36676 11.0373 5.21937 10.0877 4.29644 8.99795C3.452 8.00998 2.93994 6.84434 2.93994 5.5888ZM6.40294 5.72907C6.40294 6.56375 7.16765 7.22024 8.1053 7.22024C9.04357 7.22024 9.81564 6.56375 9.81564 5.72907C9.81564 4.90089 9.04357 4.21245 8.1053 4.21245C7.16765 4.21245 6.40294 4.90089 6.40294 5.72907Z" fill="#ADADAD"/>
</svg>
