<svg width="25" height="24" viewBox="0 0 25 24" fill="none" xmlns="http://www.w3.org/2000/svg">
<path d="M9.16667 4.22223H6.94445C6.35508 4.22223 5.78985 4.45636 5.3731 4.8731C4.95636 5.28985 4.72223 5.85508 4.72223 6.44445V19.7778C4.72223 20.3672 4.95636 20.9324 5.3731 21.3491C5.78985 21.7659 6.35508 22 6.94445 22H18.0556C18.6449 22 19.2102 21.7659 19.6269 21.3491C20.0437 20.9324 20.2778 20.3672 20.2778 19.7778V6.44445C20.2778 5.85508 20.0437 5.28985 19.6269 4.8731C19.2102 4.45636 18.6449 4.22223 18.0556 4.22223H15.8333" stroke="black" stroke-linecap="round" stroke-linejoin="round"/>
<path d="M10.2775 14.2222H14.7219M12.4997 12V16.4444M9.16638 4.22222C9.16638 3.63285 9.40051 3.06762 9.81726 2.65087C10.234 2.23413 10.7992 2 11.3886 2H13.6108C14.2002 2 14.7654 2.23413 15.1822 2.65087C15.5989 3.06762 15.833 3.63285 15.833 4.22222C15.833 4.81159 15.5989 5.37682 15.1822 5.79357C14.7654 6.21032 14.2002 6.44444 13.6108 6.44444H11.3886C10.7992 6.44444 10.234 6.21032 9.81726 5.79357C9.40051 5.37682 9.16638 4.81159 9.16638 4.22222Z" stroke="black" stroke-linecap="round" stroke-linejoin="round"/>
</svg>
