<svg width="25" height="24" viewBox="0 0 25 24" fill="none" xmlns="http://www.w3.org/2000/svg">
<path d="M22.5 22.0605L18.1186 17.6776M11.5997 20.3817C12.8208 20.3978 14.033 20.1713 15.1658 19.7151C16.2987 19.259 17.3296 18.5824 18.1989 17.7245C19.0681 16.8667 19.7583 15.8448 20.2294 14.7181C20.7004 13.5913 20.943 12.3823 20.943 11.161C20.943 9.93978 20.7004 8.7307 20.2294 7.60398C19.7583 6.47725 19.0681 5.45532 18.1989 4.5975C17.3296 3.73968 16.2987 3.06305 15.1658 2.60691C14.033 2.15077 12.8208 1.92418 11.5997 1.94032C9.17529 1.97235 6.86107 2.95791 5.15798 4.68365C3.4549 6.40938 2.5 8.73642 2.5 11.161C2.5 13.5856 3.4549 15.9126 5.15798 17.6384C6.86107 19.3641 9.17529 20.3497 11.5997 20.3817Z" stroke="black" stroke-linecap="round" stroke-linejoin="round"/>
<path d="M10.2923 5.98047C10.0789 5.98047 9.87416 6.06526 9.72323 6.21619C9.5723 6.36712 9.48751 6.57183 9.48751 6.78528V9.0484H7.22278C7.00933 9.0484 6.80462 9.13319 6.65369 9.28412C6.50276 9.43505 6.41797 9.63976 6.41797 9.85321V12.4688C6.41797 12.6823 6.50276 12.887 6.65369 13.0379C6.80462 13.1889 7.00933 13.2736 7.22278 13.2736H9.48751V15.5384C9.48751 15.7518 9.5723 15.9565 9.72323 16.1075C9.87416 16.2584 10.0789 16.3432 10.2923 16.3432H12.9063C13.1198 16.3432 13.3245 16.2584 13.4754 16.1075C13.6264 15.9565 13.7111 15.7518 13.7111 15.5384V13.272H15.9743C16.1877 13.272 16.3924 13.1872 16.5434 13.0363C16.6943 12.8854 16.7791 12.6807 16.7791 12.4672V9.85321C16.7791 9.63976 16.6943 9.43505 16.5434 9.28412C16.3924 9.13319 16.1877 9.0484 15.9743 9.0484H13.7128V6.78528C13.7128 6.57183 13.628 6.36712 13.477 6.21619C13.3261 6.06526 13.1214 5.98047 12.9079 5.98047H10.2923Z" stroke="black" stroke-linecap="round" stroke-linejoin="round"/>
</svg>
