<svg width="25" height="24" viewBox="0 0 25 24" fill="none" xmlns="http://www.w3.org/2000/svg">
<path d="M2.5 19.5C2.5 18.1739 3.02678 16.9021 3.96447 15.9645C4.90215 15.0268 6.17392 14.5 7.5 14.5H17.5C18.8261 14.5 20.0979 15.0268 21.0355 15.9645C21.9732 16.9021 22.5 18.1739 22.5 19.5C22.5 20.163 22.2366 20.7989 21.7678 21.2678C21.2989 21.7366 20.663 22 20 22H5C4.33696 22 3.70107 21.7366 3.23223 21.2678C2.76339 20.7989 2.5 20.163 2.5 19.5Z" stroke="black" stroke-linejoin="round"/>
<path d="M12.5 9.5C14.5711 9.5 16.25 7.82107 16.25 5.75C16.25 3.67893 14.5711 2 12.5 2C10.4289 2 8.75 3.67893 8.75 5.75C8.75 7.82107 10.4289 9.5 12.5 9.5Z" stroke="black"/>
</svg>
