<svg width="24" height="25" viewBox="0 0 24 25" fill="none" xmlns="http://www.w3.org/2000/svg">
<path d="M8.66667 4.22223H6.44445C5.85508 4.22223 5.28985 4.45636 4.8731 4.8731C4.45636 5.28985 4.22223 5.85508 4.22223 6.44445V19.7778C4.22223 20.3672 4.45636 20.9324 4.8731 21.3491C5.28985 21.7659 5.85508 22 6.44445 22H17.5556C18.1449 22 18.7102 21.7659 19.1269 21.3491C19.5437 20.9324 19.7778 20.3672 19.7778 19.7778V6.44445C19.7778 5.85508 19.5437 5.28985 19.1269 4.8731C18.7102 4.45636 18.1449 4.22223 17.5556 4.22223H15.3333" stroke="white" stroke-linecap="round" stroke-linejoin="round"/>
<path d="M9.77749 14.2222H14.2219M11.9997 12V16.4444M8.66638 4.22222C8.66638 3.63285 8.90051 3.06762 9.31726 2.65087C9.734 2.23413 10.2992 2 10.8886 2H13.1108C13.7002 2 14.2654 2.23413 14.6822 2.65087C15.0989 3.06762 15.333 3.63285 15.333 4.22222C15.333 4.81159 15.0989 5.37682 14.6822 5.79357C14.2654 6.21032 13.7002 6.44444 13.1108 6.44444H10.8886C10.2992 6.44444 9.734 6.21032 9.31726 5.79357C8.90051 5.37682 8.66638 4.81159 8.66638 4.22222Z" stroke="white" stroke-linecap="round" stroke-linejoin="round"/>
</svg>
