<svg width="24" height="24" viewBox="0 0 24 24" fill="none" xmlns="http://www.w3.org/2000/svg">
<path d="M18.5181 8.07146C18.3873 9.88706 17.0404 11.2857 15.5717 11.2857C14.103 11.2857 12.7539 9.88751 12.6253 8.07146C12.4914 6.18264 13.8025 4.85721 15.5717 4.85721C17.3409 4.85721 18.652 6.21701 18.5181 8.07146Z" stroke="white" stroke-linecap="round" stroke-linejoin="round"/>
<path d="M15.5718 14.1428C12.6624 14.1428 9.86468 15.5879 9.16379 18.4022C9.07094 18.7745 9.30441 19.1428 9.687 19.1428H21.457C21.8395 19.1428 22.0717 18.7745 21.9802 18.4022C21.2793 15.5428 18.4815 14.1428 15.5718 14.1428Z" stroke="white" stroke-miterlimit="10"/>
<path d="M9.5006 8.87235C9.39614 10.3223 8.30776 11.4643 7.13456 11.4643C5.96135 11.4643 4.87119 10.3228 4.76851 8.87235C4.66181 7.36388 5.72118 6.28577 7.13456 6.28577C8.54793 6.28577 9.6073 7.39156 9.5006 8.87235Z" stroke="white" stroke-linecap="round" stroke-linejoin="round"/>
<path d="M9.76809 14.2321C8.96229 13.8629 8.0748 13.7209 7.13419 13.7209C4.81278 13.7209 2.5762 14.875 2.01594 17.1227C1.94228 17.42 2.12888 17.7142 2.43424 17.7142H7.44668" stroke="white" stroke-miterlimit="10" stroke-linecap="round"/>
</svg>
