<svg width="25" height="24" viewBox="0 0 25 24" fill="none" xmlns="http://www.w3.org/2000/svg">
<path d="M19.0181 8.07147C18.8873 9.88708 17.5405 11.2857 16.0717 11.2857C14.603 11.2857 13.2539 9.88753 13.1253 8.07147C12.9914 6.18266 14.3026 4.85722 16.0717 4.85722C17.8409 4.85722 19.1521 6.21703 19.0181 8.07147Z" stroke="black" stroke-linecap="round" stroke-linejoin="round"/>
<path d="M16.0718 14.1428C13.1624 14.1428 10.3647 15.5879 9.66381 18.4022C9.57095 18.7745 9.80443 19.1428 10.187 19.1428H21.957C22.3396 19.1428 22.5717 18.7745 22.4802 18.4022C21.7793 15.5428 18.9816 14.1428 16.0718 14.1428Z" stroke="black" stroke-miterlimit="10"/>
<path d="M10.0006 8.87236C9.89615 10.3223 8.80777 11.4643 7.63457 11.4643C6.46137 11.4643 5.3712 10.3228 5.26853 8.87236C5.16183 7.3639 6.22119 6.28578 7.63457 6.28578C9.04795 6.28578 10.1073 7.39157 10.0006 8.87236Z" stroke="black" stroke-linecap="round" stroke-linejoin="round"/>
<path d="M10.2681 14.2321C9.46231 13.8629 8.57482 13.721 7.6342 13.721C5.3128 13.721 3.07622 14.875 2.51595 17.1227C2.44229 17.42 2.6289 17.7142 2.93425 17.7142H7.9467" stroke="black" stroke-miterlimit="10" stroke-linecap="round"/>
</svg>
