<svg width="25" height="24" viewBox="0 0 25 24" fill="none" xmlns="http://www.w3.org/2000/svg">
<path d="M9.16667 4.22221H6.94445C6.35508 4.22221 5.78985 4.45634 5.3731 4.87309C4.95636 5.28984 4.72223 5.85507 4.72223 6.44444V19.7778C4.72223 20.3671 4.95636 20.9324 5.3731 21.3491C5.78985 21.7659 6.35508 22 6.94445 22H18.0556C18.6449 22 19.2102 21.7659 19.6269 21.3491C20.0437 20.9324 20.2778 20.3671 20.2778 19.7778V6.44444C20.2778 5.85507 20.0437 5.28984 19.6269 4.87309C19.2102 4.45634 18.6449 4.22221 18.0556 4.22221H15.8333" stroke="black" stroke-linecap="round" stroke-linejoin="round"/>
<path d="M10.2775 14.2222H14.722M12.4997 12V16.4444M9.16641 4.22222C9.16641 3.63285 9.40054 3.06762 9.81729 2.65087C10.234 2.23413 10.7993 2 11.3886 2H13.6109C14.2002 2 14.7655 2.23413 15.1822 2.65087C15.599 3.06762 15.8331 3.63285 15.8331 4.22222C15.8331 4.81159 15.599 5.37682 15.1822 5.79357C14.7655 6.21032 14.2002 6.44444 13.6109 6.44444H11.3886C10.7993 6.44444 10.234 6.21032 9.81729 5.79357C9.40054 5.37682 9.16641 4.81159 9.16641 4.22222Z" stroke="black" stroke-linecap="round" stroke-linejoin="round"/>
</svg>
