<svg width="29" height="28" viewBox="0 0 29 28" fill="none" xmlns="http://www.w3.org/2000/svg">
<g filter="url(#filter0_d_203_1111)">
<path d="M21.0181 8.07147C20.8873 9.88708 19.5405 11.2857 18.0717 11.2857C16.603 11.2857 15.2539 9.88753 15.1253 8.07147C14.9914 6.18266 16.3026 4.85722 18.0717 4.85722C19.8409 4.85722 21.1521 6.21703 21.0181 8.07147Z" stroke="black" stroke-linecap="round" stroke-linejoin="round"/>
<path d="M18.0718 14.1428C15.1624 14.1428 12.3647 15.5879 11.6638 18.4022C11.571 18.7745 11.8044 19.1428 12.187 19.1428H23.957C24.3396 19.1428 24.5717 18.7745 24.4802 18.4022C23.7793 15.5428 20.9816 14.1428 18.0718 14.1428Z" stroke="black" stroke-miterlimit="10"/>
<path d="M12.0006 8.87236C11.8962 10.3223 10.8078 11.4643 9.63457 11.4643C8.46137 11.4643 7.3712 10.3228 7.26853 8.87236C7.16183 7.3639 8.22119 6.28578 9.63457 6.28578C11.0479 6.28578 12.1073 7.39157 12.0006 8.87236Z" stroke="black" stroke-linecap="round" stroke-linejoin="round"/>
<path d="M12.2681 14.2321C11.4623 13.8629 10.5748 13.721 9.6342 13.721C7.3128 13.721 5.07622 14.875 4.51595 17.1227C4.44229 17.42 4.6289 17.7142 4.93425 17.7142H9.9467" stroke="black" stroke-miterlimit="10" stroke-linecap="round"/>
</g>
<defs>
<filter id="filter0_d_203_1111" x="-1.5" y="0" width="32" height="32" filterUnits="userSpaceOnUse" color-interpolation-filters="sRGB">
<feFlood flood-opacity="0" result="BackgroundImageFix"/>
<feColorMatrix in="SourceAlpha" type="matrix" values="0 0 0 0 0 0 0 0 0 0 0 0 0 0 0 0 0 0 127 0" result="hardAlpha"/>
<feOffset dy="4"/>
<feGaussianBlur stdDeviation="2"/>
<feComposite in2="hardAlpha" operator="out"/>
<feColorMatrix type="matrix" values="0 0 0 0 0 0 0 0 0 0 0 0 0 0 0 0 0 0 0.25 0"/>
<feBlend mode="normal" in2="BackgroundImageFix" result="effect1_dropShadow_203_1111"/>
<feBlend mode="normal" in="SourceGraphic" in2="effect1_dropShadow_203_1111" result="shape"/>
</filter>
</defs>
</svg>
