<svg width="25" height="24" viewBox="0 0 25 24" fill="none" xmlns="http://www.w3.org/2000/svg">
<path d="M22.5 22.0605L18.1186 17.6775M11.5997 20.3817C12.8208 20.3978 14.033 20.1712 15.1658 19.7151C16.2987 19.2589 17.3296 18.5823 18.1989 17.7245C19.0681 16.8667 19.7583 15.8447 20.2294 14.718C20.7004 13.5913 20.943 12.3822 20.943 11.161C20.943 9.93975 20.7004 8.73067 20.2294 7.60395C19.7583 6.47722 19.0681 5.45529 18.1989 4.59747C17.3296 3.73965 16.2987 3.06302 15.1658 2.60688C14.033 2.15074 12.8208 1.92415 11.5997 1.94029C9.17529 1.97232 6.86107 2.95788 5.15798 4.68362C3.4549 6.40935 2.5 8.73639 2.5 11.161C2.5 13.5856 3.4549 15.9126 5.15798 17.6384C6.86107 19.3641 9.17529 20.3496 11.5997 20.3817Z" stroke="black" stroke-linecap="round" stroke-linejoin="round"/>
<path d="M10.2923 5.98042C10.0788 5.98042 9.87413 6.06522 9.7232 6.21615C9.57227 6.36708 9.48748 6.57178 9.48748 6.78523V9.04835H7.22275C7.0093 9.04835 6.80459 9.13315 6.65366 9.28408C6.50273 9.43501 6.41794 9.63971 6.41794 9.85316V12.4688C6.41794 12.6822 6.50273 12.8869 6.65366 13.0379C6.80459 13.1888 7.0093 13.2736 7.22275 13.2736H9.48748V15.5383C9.48748 15.7518 9.57227 15.9565 9.7232 16.1074C9.87413 16.2583 10.0788 16.3431 10.2923 16.3431H12.9063C13.1198 16.3431 13.3245 16.2583 13.4754 16.1074C13.6263 15.9565 13.7111 15.7518 13.7111 15.5383V13.272H15.9742C16.1877 13.272 16.3924 13.1872 16.5433 13.0363C16.6943 12.8853 16.779 12.6806 16.779 12.4672V9.85316C16.779 9.63971 16.6943 9.43501 16.5433 9.28408C16.3924 9.13315 16.1877 9.04835 15.9742 9.04835H13.7127V6.78523C13.7127 6.57178 13.6279 6.36708 13.477 6.21615C13.3261 6.06522 13.1214 5.98042 12.9079 5.98042H10.2923Z" stroke="black" stroke-linecap="round" stroke-linejoin="round"/>
</svg>
